<?xml version="1.0" encoding="utf-8"?>
<!-- Generator: Adobe Illustrator 26.0.2, SVG Export Plug-In . SVG Version: 6.00 Build 0)  -->
<svg version="1.1" id="calculatorIcon_00000132081870129503713250000009919881106442208693_"
	 xmlns="http://www.w3.org/2000/svg" xmlns:xlink="http://www.w3.org/1999/xlink" x="0px" y="0px" viewBox="0 0 595.28 841.89"
	 style="enable-background:new 0 0 595.28 841.89;" xml:space="preserve">
<style type="text/css">
	.st0{fill:#00194B;stroke:#000000;stroke-width:2;stroke-miterlimit:10;}
	.st1{fill:#F9ED32;stroke:#000000;stroke-width:2;stroke-miterlimit:10;}
</style>
<circle id="outerCircle" class="st0" cx="277.54" cy="328.55" r="135.74"/>
<path id="mathsSigns" class="st1" d="M257.59,325.45h-45.81c-7.08,0-12.82-5.74-12.82-12.82v-46.83c0-7.08,5.74-12.82,12.82-12.82
	h45.81c7.08,0,12.82,5.74,12.82,12.82v46.83C270.4,319.72,264.67,325.45,257.59,325.45z M349.31,312.27v-46.83
	c0-7.08-5.74-12.82-12.82-12.82h-45.81c-7.08,0-12.82,5.74-12.82,12.82v46.83c0,7.08,5.74,12.82,12.82,12.82h45.81
	C343.57,325.09,349.31,319.35,349.31,312.27z M271.49,391.19v-46.83c0-7.08-5.74-12.82-12.82-12.82h-45.81
	c-7.08,0-12.82,5.74-12.82,12.82v46.83c0,7.08,5.74,12.82,12.82,12.82h45.81C265.76,404.01,271.49,398.27,271.49,391.19z
	 M348.58,391.93V345.1c0-7.08-5.74-12.82-12.82-12.82h-45.81c-7.08,0-12.82,5.74-12.82,12.82v46.83c0,7.08,5.74,12.82,12.82,12.82
	h45.81C342.84,404.74,348.58,399.01,348.58,391.93z M250.68,289.59h-31.63v3.29h31.63V289.59z M249.59,367.3h-31.63v3.29h31.63
	V367.3z M236.09,386.48V354.4h-3.24v32.08H236.09z M326.31,285.94h-31.63v3.29h31.63V285.94z M326.3,292.87h-31.63v3.29h31.63
	V292.87z M323.58,378.88l-22.91-22.13l-2.23,2.38l22.91,22.13L323.58,378.88z M300.76,383.33l21.82-23.23l-2.35-2.27l-21.82,23.23
	L300.76,383.33z"/>
</svg>
