<?xml version="1.0" encoding="utf-8"?>
<!-- Generator: Adobe Illustrator 26.0.3, SVG Export Plug-In . SVG Version: 6.00 Build 0)  -->
<svg version="1.1" id="calendarIcon" xmlns="http://www.w3.org/2000/svg" xmlns:xlink="http://www.w3.org/1999/xlink" x="0px"
	 y="0px" viewBox="0 0 612 792" style="enable-background:new 0 0 612 792;" xml:space="preserve">
<style type="text/css">
	.st0{fill:#F1F2F2;stroke:#000000;stroke-width:2;stroke-miterlimit:10;}
	.st1{fill:#ED1C24;}
</style>
<path id="outerRectangle" class="st0" d="M370.75,476.49h-128.5c-12.15,0-22-9.85-22-22V338.51c0-12.15,9.85-22,22-22h128.5
	c12.15,0,22,9.85,22,22v115.99C392.75,466.64,382.9,476.49,370.75,476.49z"/>
<path id="dayInt" class="st1" d="M286.68,341.31h-1.62c-0.14-0.56-0.4-1.23-0.76-2s-0.78-1.5-1.23-2.19
	c-0.47-0.72-0.98-1.35-1.54-1.89c-0.56-0.54-1.09-0.85-1.61-0.93c-0.49-0.06-1.1-0.11-1.83-0.14c-0.74-0.03-1.42-0.05-2.04-0.05
	h-1.36v26.6c0,0.52,0.11,0.99,0.33,1.42s0.6,0.76,1.15,1c0.28,0.11,0.87,0.26,1.77,0.45s1.6,0.29,2.1,0.3v1.66h-15.7v-1.66
	c0.44-0.03,1.11-0.09,2-0.19s1.52-0.21,1.86-0.35c0.52-0.2,0.89-0.5,1.14-0.88s0.36-0.89,0.36-1.54v-26.81h-1.36
	c-0.48,0-1.09,0.01-1.8,0.04s-1.41,0.07-2.06,0.15c-0.52,0.06-1.05,0.37-1.61,0.93s-1.07,1.18-1.54,1.89s-0.88,1.45-1.24,2.24
	s-0.61,1.44-0.75,1.96h-1.64v-9.02h28.99V341.31z M323.76,365.54h-13.8v-1.66c0.38-0.03,0.92-0.08,1.63-0.14s1.2-0.16,1.46-0.28
	c0.47-0.19,0.81-0.47,1.03-0.86s0.33-0.88,0.33-1.49v-11.84h-15.63v11.58c0,0.55,0.09,1.01,0.27,1.38s0.54,0.7,1.07,0.98
	c0.27,0.14,0.74,0.28,1.42,0.42s1.21,0.22,1.61,0.23v1.66h-13.8v-1.66c0.38-0.03,0.92-0.08,1.63-0.14s1.2-0.16,1.46-0.28
	c0.47-0.19,0.81-0.47,1.03-0.86s0.33-0.88,0.33-1.49v-24c0-0.5-0.1-0.96-0.3-1.37s-0.55-0.74-1.05-0.97
	c-0.42-0.2-0.93-0.38-1.54-0.54s-1.12-0.25-1.56-0.28v-1.66h13.8v1.66c-0.44,0.02-0.97,0.09-1.61,0.21s-1.11,0.24-1.42,0.35
	c-0.53,0.19-0.89,0.5-1.07,0.94s-0.27,0.91-0.27,1.43v10.31h15.63v-10.08c0-0.5-0.1-0.96-0.3-1.37s-0.55-0.74-1.05-0.97
	c-0.42-0.2-0.93-0.38-1.54-0.54s-1.12-0.25-1.56-0.28v-1.66h13.8v1.66c-0.44,0.02-0.97,0.09-1.61,0.21s-1.11,0.24-1.42,0.35
	c-0.53,0.19-0.89,0.5-1.07,0.94s-0.27,0.91-0.27,1.43v23.98c0,0.55,0.09,1.01,0.27,1.38s0.54,0.7,1.07,0.98
	c0.27,0.14,0.74,0.28,1.42,0.42s1.21,0.22,1.61,0.23V365.54z M362.08,333.95c-0.44,0.02-1.08,0.11-1.92,0.28s-1.53,0.43-2.06,0.77
	c-0.53,0.36-0.9,1.1-1.1,2.23s-0.3,2.5-0.3,4.12v14.46c0,1.84-0.38,3.45-1.15,4.8s-1.77,2.48-3.02,3.35
	c-1.23,0.84-2.54,1.45-3.9,1.82s-2.68,0.55-3.93,0.55c-2,0-3.78-0.26-5.34-0.79s-2.88-1.23-3.94-2.12
	c-1.05-0.89-1.84-1.91-2.37-3.06s-0.8-2.35-0.8-3.6v-19.66c0-0.55-0.09-1-0.27-1.37s-0.54-0.71-1.09-1.02
	c-0.39-0.22-0.89-0.39-1.5-0.53s-1.11-0.21-1.5-0.25v-1.66h13.85v1.66c-0.44,0.02-0.99,0.09-1.65,0.21s-1.15,0.24-1.46,0.35
	c-0.53,0.19-0.89,0.5-1.07,0.94c-0.18,0.44-0.27,0.91-0.27,1.43v18.36c0,0.89,0.1,1.82,0.29,2.8c0.2,0.98,0.58,1.89,1.16,2.73
	c0.61,0.86,1.44,1.56,2.48,2.11c1.05,0.55,2.48,0.82,4.31,0.82c1.72,0,3.16-0.27,4.32-0.82c1.16-0.55,2.08-1.26,2.75-2.16
	c0.64-0.84,1.09-1.72,1.36-2.65c0.27-0.92,0.4-1.85,0.4-2.79v-13.63c0-1.73-0.12-3.15-0.38-4.25c-0.25-1.1-0.62-1.82-1.1-2.17
	c-0.55-0.39-1.29-0.69-2.24-0.91c-0.95-0.22-1.67-0.34-2.17-0.37v-1.66h13.59V333.95z"/>
<path id="numericDate" d="M304.61,443.86H268v-5.34c0.7-0.81,1.68-1.71,2.93-2.71s2.73-2.09,4.45-3.26c1.04-0.7,2.29-1.47,3.75-2.3
	c1.46-0.83,3.11-1.74,4.96-2.73c2.06-1.09,3.64-2.06,4.75-2.89c1.11-0.83,2.12-1.86,3.03-3.08c0.6-0.81,1.08-1.81,1.45-3.02
	c0.36-1.21,0.55-2.93,0.55-5.17c0-3.25-0.87-5.64-2.62-7.16c-1.75-1.52-3.98-2.28-6.72-2.28c-1.69,0-3.29,0.33-4.8,1
	c-1.51,0.66-2.64,1.58-3.4,2.75c0.18,0.83,0.41,1.82,0.68,2.97c0.27,1.15,0.41,2.27,0.41,3.36c0,0.99-0.41,1.87-1.23,2.64
	c-0.82,0.77-2.04,1.15-3.65,1.15c-1.3,0-2.3-0.45-3.01-1.35s-1.05-2.1-1.05-3.61c0-1.41,0.39-2.82,1.17-4.24
	c0.78-1.42,1.9-2.73,3.36-3.93c1.43-1.17,3.2-2.12,5.31-2.85c2.11-0.73,4.39-1.09,6.84-1.09c5.34,0,9.58,1.19,12.71,3.57
	c3.14,2.38,4.71,5.56,4.71,9.54c0,1.9-0.28,3.63-0.84,5.19c-0.56,1.56-1.46,2.94-2.71,4.14c-1.38,1.33-3,2.46-4.84,3.42
	c-1.85,0.95-4.67,2.27-8.48,3.96c-2.27,1.01-4.38,2.08-6.33,3.18s-3.55,2.18-4.8,3.22h30.04V443.86z M348.59,404.49l-27.83,53.63
	h-4.9l26.18-49.61h-15.32c-2.27,0-4.04,0.03-5.31,0.08c-1.28,0.05-2.45,0.3-3.52,0.74c-0.81,0.34-1.53,1.21-2.17,2.6
	c-0.64,1.39-1.13,3.17-1.46,5.33h-2.38v-15.31h36.72V404.49z"/>
</svg>
