<?xml version="1.0" encoding="utf-8"?>
<!-- Generator: Adobe Illustrator 26.0.2, SVG Export Plug-In . SVG Version: 6.00 Build 0)  -->
<svg version="1.1" id="WindowsIcon" xmlns="http://www.w3.org/2000/svg" xmlns:xlink="http://www.w3.org/1999/xlink" x="0px"
	 y="0px" viewBox="0 0 595.28 841.89" style="enable-background:new 0 0 595.28 841.89;" xml:space="preserve">
<style type="text/css">
	.st0{fill:none;}
	.st1{fill:#00AEEF;stroke:#000000;stroke-miterlimit:10;}
</style>
<g id="whiteBars">
	<rect x="286.02" y="155.8" class="st0" width="17.32" height="416.16"/>
	
		<rect x="287.32" y="156.57" transform="matrix(-1.836970e-16 1 -1 -1.836970e-16 660.287 69.0114)" class="st0" width="16.64" height="416.16"/>
</g>
<g id="fourSquare">
	<path class="st1" d="M273.21,356.33H100.38c-7.08,0-12.82-5.74-12.82-12.82V170.68c0-7.08,5.74-12.82,12.82-12.82h172.83
		c7.08,0,12.82,5.74,12.82,12.82v172.83C286.02,350.59,280.28,356.33,273.21,356.33z"/>
	<path class="st1" d="M492.4,355.32H319.57c-7.08,0-12.82-5.74-12.82-12.82V169.67c0-7.08,5.74-12.82,12.82-12.82H492.4
		c7.08,0,12.82,5.74,12.82,12.82V342.5C505.21,349.58,499.48,355.32,492.4,355.32z"/>
	<path class="st1" d="M276.24,571.48H103.41c-7.08,0-12.82-5.74-12.82-12.82V385.83c0-7.08,5.74-12.82,12.82-12.82h172.83
		c7.08,0,12.82,5.74,12.82,12.82v172.83C289.05,565.74,283.31,571.48,276.24,571.48z"/>
	<path class="st1" d="M490.38,573.5H317.55c-7.08,0-12.82-5.74-12.82-12.82V387.85c0-7.08,5.74-12.82,12.82-12.82h172.83
		c7.08,0,12.82,5.74,12.82,12.82v172.83C503.19,567.76,497.46,573.5,490.38,573.5z"/>
</g>
</svg>
